# xmcd CD database file
#
# Track frame offsets:
#	240
#	17091
#	34057
#	62354
#	85335
#	114162
#	133983
#	150829
#	171942
#	188795
#	211323
#	232284
#	253325
#	276679
#	291200
#
# Disc length: 4041 seconds
#
# Revision: 0
# Processed by: cddbd v1.5.1PL0 Copyright (c) Steve Scherf et al.
# Submitted via: CDex 1.51
#
DISCID=dd0fc60f
DTITLE=Voodoo Child - Gospel of the Blues
DYEAR=2000
DGENRE=Blues
TTITLE0=Brighter Days
TTITLE1=Central Avenue
TTITLE2=Gospel of the Blues
TTITLE3=Leave Me Alone
TTITLE4=Life
TTITLE5=Eat at me
TTITLE6=Poodle Skirt Dessert
TTITLE7=Nothing but a Party at the Weekend
TTITLE8=I'm a Woman
TTITLE9=The Condition
TTITLE10=Let's get wet
TTITLE11=Causal Man
TTITLE12=Here we go
TTITLE13=Key to the Highway
TTITLE14=The Music is Over
EXTD=YEAR: 2000
EXTT0=
EXTT1=
EXTT2=
EXTT3=
EXTT4=
EXTT5=
EXTT6=
EXTT7=
EXTT8=
EXTT9=
EXTT10=
EXTT11=
EXTT12=
EXTT13=
EXTT14=
PLAYORDER=
